<svg width="29" height="29" viewBox="0 0 29 29" fill="none" xmlns="http://www.w3.org/2000/svg">
<path d="M22.3335 22.25C23.107 22.25 23.8489 22.5573 24.3959 23.1043C24.9429 23.6513 25.2502 24.3931 25.2502 25.1667C25.2502 25.9402 24.9429 26.6821 24.3959 27.2291C23.8489 27.776 23.107 28.0833 22.3335 28.0833C21.5599 28.0833 20.8181 27.776 20.2711 27.2291C19.7241 26.6821 19.4168 25.9402 19.4168 25.1667C19.4168 24.3931 19.7241 23.6513 20.2711 23.1043C20.8181 22.5573 21.5599 22.25 22.3335 22.25ZM22.3335 23.7083C21.9467 23.7083 21.5758 23.862 21.3023 24.1355C21.0288 24.409 20.8752 24.7799 20.8752 25.1667C20.8752 25.5534 21.0288 25.9244 21.3023 26.1979C21.5758 26.4714 21.9467 26.625 22.3335 26.625C22.7203 26.625 23.0912 26.4714 23.3647 26.1979C23.6382 25.9244 23.7918 25.5534 23.7918 25.1667C23.7918 24.7799 23.6382 24.409 23.3647 24.1355C23.0912 23.862 22.7203 23.7083 22.3335 23.7083ZM9.2085 22.25C9.98204 22.25 10.7239 22.5573 11.2709 23.1043C11.8179 23.6513 12.1252 24.3931 12.1252 25.1667C12.1252 25.9402 11.8179 26.6821 11.2709 27.2291C10.7239 27.776 9.98204 28.0833 9.2085 28.0833C8.43495 28.0833 7.69308 27.776 7.1461 27.2291C6.59912 26.6821 6.29183 25.9402 6.29183 25.1667C6.29183 24.3931 6.59912 23.6513 7.1461 23.1043C7.69308 22.5573 8.43495 22.25 9.2085 22.25ZM9.2085 23.7083C8.82172 23.7083 8.45079 23.862 8.1773 24.1355C7.90381 24.409 7.75016 24.7799 7.75016 25.1667C7.75016 25.5534 7.90381 25.9244 8.1773 26.1979C8.45079 26.4714 8.82172 26.625 9.2085 26.625C9.59527 26.625 9.9662 26.4714 10.2397 26.1979C10.5132 25.9244 10.6668 25.5534 10.6668 25.1667C10.6668 24.7799 10.5132 24.409 10.2397 24.1355C9.9662 23.862 9.59527 23.7083 9.2085 23.7083ZM25.2502 4.75H5.23162L8.946 13.5H20.8752C21.1019 13.5003 21.3256 13.4475 21.5282 13.3457C21.7309 13.2438 21.9068 13.0959 22.0418 12.9138L26.4168 7.08042H26.4183C26.58 6.86365 26.6783 6.60617 26.7021 6.33676C26.7259 6.06735 26.6744 5.79663 26.5532 5.55484C26.432 5.31306 26.2459 5.10974 26.0158 4.96761C25.7857 4.82548 25.5206 4.75013 25.2502 4.75ZM20.8752 14.9583H9.01308L7.896 17.2333L7.75016 17.875C7.75016 18.2618 7.90381 18.6327 8.1773 18.9062C8.45079 19.1797 8.82172 19.3333 9.2085 19.3333H25.2502V20.7917H9.2085C8.70065 20.7919 8.20155 20.6596 7.76057 20.4077C7.31958 20.1558 6.952 19.7932 6.69419 19.3557C6.43638 18.9181 6.29729 18.4209 6.29066 17.9131C6.28403 17.4053 6.41011 16.9045 6.65641 16.4604L7.70641 14.3108L2.40975 1.83333H0.458496V0.375H3.37516L4.61329 3.29167H25.2502C25.8012 3.29172 26.341 3.44789 26.807 3.74208C27.2729 4.03627 27.646 4.45645 27.883 4.95395C28.12 5.45145 28.2112 6.00592 28.1461 6.55312C28.081 7.10032 27.8621 7.61788 27.515 8.04583L23.2654 13.7129C22.9967 14.0976 22.6391 14.4118 22.2229 14.6286C21.8068 14.8454 21.3444 14.9586 20.8752 14.9583Z" fill="white"/>
</svg>
