<svg width="35" height="35" viewBox="0 0 35 35" fill="none" xmlns="http://www.w3.org/2000/svg">
<path d="M7.75553 16.5H22.5368L16.7139 10.6771L17.9035 9.33333L25.966 17.3958L17.9035 25.4583L16.7139 24.1146L22.5368 18.2917H7.75553V16.5ZM34.6305 17.3958C34.6305 19.631 34.1903 21.8444 33.3349 23.9094C32.4795 25.9745 31.2258 27.8509 29.6452 29.4314C28.0647 31.0119 26.1884 32.2657 24.1233 33.121C22.0582 33.9764 19.8449 34.4167 17.6097 34.4167C15.3745 34.4167 13.1612 33.9764 11.0961 33.121C9.03105 32.2657 7.15468 31.0119 5.57415 29.4314C3.99362 27.8509 2.73988 25.9745 1.8845 23.9094C1.02912 21.8444 0.588867 19.631 0.588867 17.3958C0.588867 12.8816 2.38213 8.55231 5.57415 5.36029C8.76618 2.16826 13.0955 0.375 17.6097 0.375C22.1239 0.375 26.4532 2.16826 29.6452 5.36029C32.8373 8.55231 34.6305 12.8816 34.6305 17.3958ZM32.8389 17.3958C32.8389 13.3568 31.2344 9.48321 28.3783 6.62719C25.5223 3.77116 21.6487 2.16667 17.6097 2.16667C13.5707 2.16667 9.69708 3.77116 6.84105 6.62719C3.98503 9.48321 2.38053 13.3568 2.38053 17.3958C2.38053 21.4349 3.98503 25.3085 6.84105 28.1645C9.69708 31.0205 13.5707 32.625 17.6097 32.625C21.6487 32.625 25.5223 31.0205 28.3783 28.1645C31.2344 25.3085 32.8389 21.4349 32.8389 17.3958Z" fill="#A0FEB5"/>
</svg>
